<?xml version="1.0" encoding="utf-8"?>
<!-- Generator: $$$/GeneralStr/196=Adobe Illustrator 27.6.0, SVG Export Plug-In . SVG Version: 6.00 Build 0)  -->
<svg version="1.1" id="Calque_1" xmlns="http://www.w3.org/2000/svg" xmlns:xlink="http://www.w3.org/1999/xlink" x="0px" y="0px"
	 viewBox="0 0 12 12" style="enable-background:new 0 0 12 12;" xml:space="preserve">
<style type="text/css">
	.st0{fill:#FFFFFF;}
</style>
<path class="st0" d="M4.9,3.1l-1.1,0c-0.3,0-0.6,0.3-0.6,0.6v1.1c0,0.3,0.2,0.5,0.5,0.6l0.1,0l1.1,0c0.3,0,0.6-0.3,0.6-0.6V3.7
	C5.4,3.4,5.2,3.2,4.9,3.1L4.9,3.1z M8.3,3.1l-1.1,0c-0.3,0-0.6,0.3-0.6,0.6v1.1c0,0.3,0.2,0.5,0.5,0.6l0.1,0l1.1,0
	c0.3,0,0.6-0.3,0.6-0.6V3.7C8.9,3.4,8.6,3.2,8.3,3.1L8.3,3.1z M4.9,6.6l-1.1,0c-0.3,0-0.6,0.3-0.6,0.6v1.1c0,0.3,0.2,0.5,0.5,0.6
	l0.1,0l1.1,0c0.3,0,0.6-0.3,0.6-0.6V7.1C5.4,6.9,5.2,6.6,4.9,6.6L4.9,6.6z M8.3,6.6l-1.1,0c-0.3,0-0.6,0.3-0.6,0.6v1.1
	c0,0.3,0.2,0.5,0.5,0.6l0.1,0l1.1,0c0.3,0,0.6-0.3,0.6-0.6V7.1C8.9,6.9,8.6,6.6,8.3,6.6L8.3,6.6z"/>
</svg>
